<mxfile host="Electron" agent="Mozilla/5.0 (Windows NT 10.0; Win64; x64) AppleWebKit/537.36 (KHTML, like Gecko) draw.io/27.0.9 Chrome/134.0.6998.205 Electron/35.4.0 Safari/537.36" version="27.0.9">
  <diagram name="第 1 页" id="aDojiVrzr0_B-pQe_Svz">
    <mxGraphModel dx="2431" dy="1413" grid="1" gridSize="10" guides="1" tooltips="1" connect="1" arrows="1" fold="1" page="1" pageScale="1" pageWidth="1169" pageHeight="1654" math="0" shadow="0">
      <root>
        <mxCell id="0" />
        <mxCell id="1" parent="0" />
        <mxCell id="WqZ7D9HpAIjjWjwTD_I5-1" value="" style="shape=table;startSize=0;container=1;collapsible=0;childLayout=tableLayout;fixedRows=1;rowLines=0;fontStyle=0;strokeColor=default;fontSize=14;fillColor=none;" vertex="1" parent="1">
          <mxGeometry x="110" y="129" width="660" height="247" as="geometry" />
        </mxCell>
        <mxCell id="WqZ7D9HpAIjjWjwTD_I5-2" value="" style="shape=tableRow;horizontal=0;startSize=0;swimlaneHead=0;swimlaneBody=0;top=0;left=0;bottom=0;right=0;collapsible=0;dropTarget=0;fillColor=none;points=[[0,0.5],[1,0.5]];portConstraint=eastwest;strokeColor=inherit;fontSize=14;" vertex="1" parent="WqZ7D9HpAIjjWjwTD_I5-1">
          <mxGeometry width="660" height="61" as="geometry" />
        </mxCell>
        <mxCell id="WqZ7D9HpAIjjWjwTD_I5-3" value="&lt;b&gt;struct boot_param_header&lt;br&gt;&lt;/b&gt;" style="shape=partialRectangle;html=1;whiteSpace=wrap;connectable=0;fillColor=#d5e8d4;top=0;left=0;bottom=0;right=0;overflow=hidden;pointerEvents=1;strokeColor=inherit;fontSize=14;" vertex="1" parent="WqZ7D9HpAIjjWjwTD_I5-2">
          <mxGeometry width="210" height="61" as="geometry">
            <mxRectangle width="210" height="61" as="alternateBounds" />
          </mxGeometry>
        </mxCell>
        <mxCell id="WqZ7D9HpAIjjWjwTD_I5-4" value="1、文件头，包含&lt;b&gt;基本信息&lt;/b&gt;和&lt;b&gt;各区域的偏移&lt;/b&gt;地址&lt;br&gt;2、&lt;b&gt;scripts/dtc/libfdt/fdt.h&lt;/b&gt; 中可以看到对应 &lt;b&gt;struct fdt_header&amp;nbsp;&lt;/b&gt;结构体" style="shape=partialRectangle;html=1;whiteSpace=wrap;connectable=0;fillColor=#d5e8d4;top=0;left=0;bottom=0;right=0;align=left;spacingLeft=6;overflow=hidden;strokeColor=inherit;fontSize=14;" vertex="1" parent="WqZ7D9HpAIjjWjwTD_I5-2">
          <mxGeometry x="210" width="450" height="61" as="geometry">
            <mxRectangle width="450" height="61" as="alternateBounds" />
          </mxGeometry>
        </mxCell>
        <mxCell id="WqZ7D9HpAIjjWjwTD_I5-58" value="" style="shape=tableRow;horizontal=0;startSize=0;swimlaneHead=0;swimlaneBody=0;top=0;left=0;bottom=0;right=0;collapsible=0;dropTarget=0;fillColor=none;points=[[0,0.5],[1,0.5]];portConstraint=eastwest;strokeColor=inherit;fontSize=14;" vertex="1" parent="WqZ7D9HpAIjjWjwTD_I5-1">
          <mxGeometry y="61" width="660" height="31" as="geometry" />
        </mxCell>
        <mxCell id="WqZ7D9HpAIjjWjwTD_I5-59" value="（alignment gap）" style="shape=partialRectangle;html=1;whiteSpace=wrap;connectable=0;fillColor=none;top=0;left=0;bottom=0;right=0;overflow=hidden;pointerEvents=1;strokeColor=inherit;fontSize=14;" vertex="1" parent="WqZ7D9HpAIjjWjwTD_I5-58">
          <mxGeometry width="210" height="31" as="geometry">
            <mxRectangle width="210" height="31" as="alternateBounds" />
          </mxGeometry>
        </mxCell>
        <mxCell id="WqZ7D9HpAIjjWjwTD_I5-60" value="对齐填充，确保数据按照特定字节边界对齐（通常是4或8字节）" style="shape=partialRectangle;html=1;whiteSpace=wrap;connectable=0;fillColor=none;top=0;left=0;bottom=0;right=0;align=left;spacingLeft=6;overflow=hidden;strokeColor=inherit;fontSize=14;" vertex="1" parent="WqZ7D9HpAIjjWjwTD_I5-58">
          <mxGeometry x="210" width="450" height="31" as="geometry">
            <mxRectangle width="450" height="31" as="alternateBounds" />
          </mxGeometry>
        </mxCell>
        <mxCell id="WqZ7D9HpAIjjWjwTD_I5-61" value="" style="shape=tableRow;horizontal=0;startSize=0;swimlaneHead=0;swimlaneBody=0;top=0;left=0;bottom=0;right=0;collapsible=0;dropTarget=0;fillColor=none;points=[[0,0.5],[1,0.5]];portConstraint=eastwest;strokeColor=inherit;fontSize=14;" vertex="1" parent="WqZ7D9HpAIjjWjwTD_I5-1">
          <mxGeometry y="92" width="660" height="31" as="geometry" />
        </mxCell>
        <mxCell id="WqZ7D9HpAIjjWjwTD_I5-62" value="&lt;b&gt;memory reserve map&lt;/b&gt;" style="shape=partialRectangle;html=1;whiteSpace=wrap;connectable=0;fillColor=none;top=0;left=0;bottom=0;right=0;overflow=hidden;pointerEvents=1;strokeColor=inherit;fontSize=14;" vertex="1" parent="WqZ7D9HpAIjjWjwTD_I5-61">
          <mxGeometry width="210" height="31" as="geometry">
            <mxRectangle width="210" height="31" as="alternateBounds" />
          </mxGeometry>
        </mxCell>
        <mxCell id="WqZ7D9HpAIjjWjwTD_I5-63" value="内存保留映射表，记录需要保留的内存区域，不能被内核随意使用" style="shape=partialRectangle;html=1;whiteSpace=wrap;connectable=0;fillColor=none;top=0;left=0;bottom=0;right=0;align=left;spacingLeft=6;overflow=hidden;strokeColor=inherit;fontSize=14;" vertex="1" parent="WqZ7D9HpAIjjWjwTD_I5-61">
          <mxGeometry x="210" width="450" height="31" as="geometry">
            <mxRectangle width="450" height="31" as="alternateBounds" />
          </mxGeometry>
        </mxCell>
        <mxCell id="WqZ7D9HpAIjjWjwTD_I5-64" value="" style="shape=tableRow;horizontal=0;startSize=0;swimlaneHead=0;swimlaneBody=0;top=0;left=0;bottom=0;right=0;collapsible=0;dropTarget=0;fillColor=none;points=[[0,0.5],[1,0.5]];portConstraint=eastwest;strokeColor=inherit;fontSize=14;" vertex="1" parent="WqZ7D9HpAIjjWjwTD_I5-1">
          <mxGeometry y="123" width="660" height="31" as="geometry" />
        </mxCell>
        <mxCell id="WqZ7D9HpAIjjWjwTD_I5-65" value="（alignment gap）" style="shape=partialRectangle;html=1;whiteSpace=wrap;connectable=0;fillColor=none;top=0;left=0;bottom=0;right=0;overflow=hidden;pointerEvents=1;strokeColor=inherit;fontSize=14;" vertex="1" parent="WqZ7D9HpAIjjWjwTD_I5-64">
          <mxGeometry width="210" height="31" as="geometry">
            <mxRectangle width="210" height="31" as="alternateBounds" />
          </mxGeometry>
        </mxCell>
        <mxCell id="WqZ7D9HpAIjjWjwTD_I5-66" value="——" style="shape=partialRectangle;html=1;whiteSpace=wrap;connectable=0;fillColor=none;top=0;left=0;bottom=0;right=0;align=left;spacingLeft=6;overflow=hidden;strokeColor=inherit;fontSize=14;" vertex="1" parent="WqZ7D9HpAIjjWjwTD_I5-64">
          <mxGeometry x="210" width="450" height="31" as="geometry">
            <mxRectangle width="450" height="31" as="alternateBounds" />
          </mxGeometry>
        </mxCell>
        <mxCell id="WqZ7D9HpAIjjWjwTD_I5-67" value="" style="shape=tableRow;horizontal=0;startSize=0;swimlaneHead=0;swimlaneBody=0;top=0;left=0;bottom=0;right=0;collapsible=0;dropTarget=0;fillColor=none;points=[[0,0.5],[1,0.5]];portConstraint=eastwest;strokeColor=inherit;fontSize=14;" vertex="1" parent="WqZ7D9HpAIjjWjwTD_I5-1">
          <mxGeometry y="154" width="660" height="31" as="geometry" />
        </mxCell>
        <mxCell id="WqZ7D9HpAIjjWjwTD_I5-68" value="&lt;b&gt;device-tree structure&lt;/b&gt;" style="shape=partialRectangle;html=1;whiteSpace=wrap;connectable=0;fillColor=#e1d5e7;top=0;left=0;bottom=0;right=0;overflow=hidden;pointerEvents=1;strokeColor=#9673a6;fontSize=14;" vertex="1" parent="WqZ7D9HpAIjjWjwTD_I5-67">
          <mxGeometry width="210" height="31" as="geometry">
            <mxRectangle width="210" height="31" as="alternateBounds" />
          </mxGeometry>
        </mxCell>
        <mxCell id="WqZ7D9HpAIjjWjwTD_I5-69" value="设备树结构数据，存储节点和属性" style="shape=partialRectangle;html=1;whiteSpace=wrap;connectable=0;fillColor=#e1d5e7;top=0;left=0;bottom=0;right=0;align=left;spacingLeft=6;overflow=hidden;strokeColor=#9673a6;fontSize=14;" vertex="1" parent="WqZ7D9HpAIjjWjwTD_I5-67">
          <mxGeometry x="210" width="450" height="31" as="geometry">
            <mxRectangle width="450" height="31" as="alternateBounds" />
          </mxGeometry>
        </mxCell>
        <mxCell id="WqZ7D9HpAIjjWjwTD_I5-70" value="" style="shape=tableRow;horizontal=0;startSize=0;swimlaneHead=0;swimlaneBody=0;top=0;left=0;bottom=0;right=0;collapsible=0;dropTarget=0;fillColor=none;points=[[0,0.5],[1,0.5]];portConstraint=eastwest;strokeColor=inherit;fontSize=14;" vertex="1" parent="WqZ7D9HpAIjjWjwTD_I5-1">
          <mxGeometry y="185" width="660" height="31" as="geometry" />
        </mxCell>
        <mxCell id="WqZ7D9HpAIjjWjwTD_I5-71" value="（alignment gap）" style="shape=partialRectangle;html=1;whiteSpace=wrap;connectable=0;fillColor=none;top=0;left=0;bottom=0;right=0;overflow=hidden;pointerEvents=1;strokeColor=inherit;fontSize=14;" vertex="1" parent="WqZ7D9HpAIjjWjwTD_I5-70">
          <mxGeometry width="210" height="31" as="geometry">
            <mxRectangle width="210" height="31" as="alternateBounds" />
          </mxGeometry>
        </mxCell>
        <mxCell id="WqZ7D9HpAIjjWjwTD_I5-72" value="——" style="shape=partialRectangle;html=1;whiteSpace=wrap;connectable=0;fillColor=none;top=0;left=0;bottom=0;right=0;align=left;spacingLeft=6;overflow=hidden;strokeColor=inherit;fontSize=14;" vertex="1" parent="WqZ7D9HpAIjjWjwTD_I5-70">
          <mxGeometry x="210" width="450" height="31" as="geometry">
            <mxRectangle width="450" height="31" as="alternateBounds" />
          </mxGeometry>
        </mxCell>
        <mxCell id="WqZ7D9HpAIjjWjwTD_I5-73" value="" style="shape=tableRow;horizontal=0;startSize=0;swimlaneHead=0;swimlaneBody=0;top=0;left=0;bottom=0;right=0;collapsible=0;dropTarget=0;fillColor=none;points=[[0,0.5],[1,0.5]];portConstraint=eastwest;strokeColor=inherit;fontSize=14;" vertex="1" parent="WqZ7D9HpAIjjWjwTD_I5-1">
          <mxGeometry y="216" width="660" height="31" as="geometry" />
        </mxCell>
        <mxCell id="WqZ7D9HpAIjjWjwTD_I5-74" value="&lt;b&gt;device-tree strings&lt;/b&gt;" style="shape=partialRectangle;html=1;whiteSpace=wrap;connectable=0;fillColor=none;top=0;left=0;bottom=0;right=0;overflow=hidden;pointerEvents=1;strokeColor=inherit;fontSize=14;" vertex="1" parent="WqZ7D9HpAIjjWjwTD_I5-73">
          <mxGeometry width="210" height="31" as="geometry">
            <mxRectangle width="210" height="31" as="alternateBounds" />
          </mxGeometry>
        </mxCell>
        <mxCell id="WqZ7D9HpAIjjWjwTD_I5-75" value="字符串存储区，集中存放所有字符串（&lt;b&gt;属性名、节点名&lt;/b&gt;）" style="shape=partialRectangle;html=1;whiteSpace=wrap;connectable=0;fillColor=none;top=0;left=0;bottom=0;right=0;align=left;spacingLeft=6;overflow=hidden;strokeColor=inherit;fontSize=14;" vertex="1" parent="WqZ7D9HpAIjjWjwTD_I5-73">
          <mxGeometry x="210" width="450" height="31" as="geometry">
            <mxRectangle width="450" height="31" as="alternateBounds" />
          </mxGeometry>
        </mxCell>
        <mxCell id="WqZ7D9HpAIjjWjwTD_I5-11" value="&lt;h1&gt;&lt;font style=&quot;&quot;&gt;&lt;span style=&quot;font-size: 20px;&quot;&gt;DTB文件结构&lt;/span&gt;&lt;br&gt;&lt;font style=&quot;font-size: 13px; font-weight: normal;&quot;&gt;DTB是DTS的二进制版本（&lt;/font&gt;&lt;font style=&quot;font-size: 13px;&quot;&gt;大端序&lt;/font&gt;&lt;font style=&quot;font-size: 13px; font-weight: normal;&quot;&gt;），采用分段式布局，保持结构的清晰性，优化存储效率和加载速度&lt;/font&gt;&lt;/font&gt;&lt;/h1&gt;" style="rounded=0;whiteSpace=wrap;html=1;fillColor=#dae8fc;strokeColor=#6c8ebf;" vertex="1" parent="1">
          <mxGeometry x="110" y="70" width="660" height="60" as="geometry" />
        </mxCell>
        <mxCell id="WqZ7D9HpAIjjWjwTD_I5-12" value="" style="shape=table;startSize=0;container=1;collapsible=0;childLayout=tableLayout;fixedRows=1;rowLines=0;fontStyle=0;strokeColor=#82b366;fontSize=14;fillColor=none;" vertex="1" parent="1">
          <mxGeometry x="110" y="430" width="660" height="320" as="geometry" />
        </mxCell>
        <mxCell id="WqZ7D9HpAIjjWjwTD_I5-13" value="" style="shape=tableRow;horizontal=0;startSize=0;swimlaneHead=0;swimlaneBody=0;top=0;left=0;bottom=0;right=0;collapsible=0;dropTarget=0;fillColor=none;points=[[0,0.5],[1,0.5]];portConstraint=eastwest;strokeColor=inherit;fontSize=14;" vertex="1" parent="WqZ7D9HpAIjjWjwTD_I5-12">
          <mxGeometry width="660" height="30" as="geometry" />
        </mxCell>
        <mxCell id="WqZ7D9HpAIjjWjwTD_I5-14" value="&lt;b&gt;结构体定义&lt;/b&gt;" style="shape=partialRectangle;html=1;whiteSpace=wrap;connectable=0;fillColor=none;top=0;left=0;bottom=0;right=0;overflow=hidden;pointerEvents=1;strokeColor=inherit;fontSize=14;" vertex="1" parent="WqZ7D9HpAIjjWjwTD_I5-13">
          <mxGeometry width="128" height="30" as="geometry">
            <mxRectangle width="128" height="30" as="alternateBounds" />
          </mxGeometry>
        </mxCell>
        <mxCell id="WqZ7D9HpAIjjWjwTD_I5-15" value="&lt;b style=&quot;background-color: transparent; color: light-dark(rgb(0, 0, 0), rgb(255, 255, 255));&quot;&gt;scripts/dtc/libfdt/fdt.h &lt;/b&gt;&lt;span style=&quot;background-color: transparent; color: light-dark(rgb(0, 0, 0), rgb(255, 255, 255));&quot;&gt;中可以看到对应&lt;/span&gt;&lt;b style=&quot;background-color: transparent; color: light-dark(rgb(0, 0, 0), rgb(255, 255, 255));&quot;&gt; struct fdt_header &lt;/b&gt;&lt;span style=&quot;background-color: transparent; color: light-dark(rgb(0, 0, 0), rgb(255, 255, 255));&quot;&gt;结构体&lt;/span&gt;" style="shape=partialRectangle;html=1;whiteSpace=wrap;connectable=0;fillColor=none;top=0;left=0;bottom=0;right=0;align=left;spacingLeft=6;overflow=hidden;strokeColor=inherit;fontSize=14;" vertex="1" parent="WqZ7D9HpAIjjWjwTD_I5-13">
          <mxGeometry x="128" width="532" height="30" as="geometry">
            <mxRectangle width="532" height="30" as="alternateBounds" />
          </mxGeometry>
        </mxCell>
        <mxCell id="WqZ7D9HpAIjjWjwTD_I5-16" value="" style="shape=tableRow;horizontal=0;startSize=0;swimlaneHead=0;swimlaneBody=0;top=0;left=0;bottom=0;right=0;collapsible=0;dropTarget=0;fillColor=none;points=[[0,0.5],[1,0.5]];portConstraint=eastwest;strokeColor=inherit;fontSize=14;" vertex="1" parent="WqZ7D9HpAIjjWjwTD_I5-12">
          <mxGeometry y="30" width="660" height="290" as="geometry" />
        </mxCell>
        <mxCell id="WqZ7D9HpAIjjWjwTD_I5-17" value="&lt;b&gt;结构体详解&lt;/b&gt;" style="shape=partialRectangle;html=1;whiteSpace=wrap;connectable=0;fillColor=none;top=0;left=0;bottom=0;right=0;overflow=hidden;strokeColor=inherit;fontSize=14;" vertex="1" parent="WqZ7D9HpAIjjWjwTD_I5-16">
          <mxGeometry width="128" height="290" as="geometry">
            <mxRectangle width="128" height="290" as="alternateBounds" />
          </mxGeometry>
        </mxCell>
        <mxCell id="WqZ7D9HpAIjjWjwTD_I5-18" value="" style="shape=partialRectangle;html=1;whiteSpace=wrap;connectable=0;fillColor=none;top=0;left=0;bottom=0;right=0;align=left;spacingLeft=6;overflow=hidden;strokeColor=#d79b00;fontSize=14;" vertex="1" parent="WqZ7D9HpAIjjWjwTD_I5-16">
          <mxGeometry x="128" width="532" height="290" as="geometry">
            <mxRectangle width="532" height="290" as="alternateBounds" />
          </mxGeometry>
        </mxCell>
        <mxCell id="WqZ7D9HpAIjjWjwTD_I5-31" value="&lt;h1&gt;&lt;font style=&quot;&quot;&gt;&lt;font style=&quot;font-size: 18px;&quot;&gt;文件头详解&lt;/font&gt;&lt;br&gt;&lt;/font&gt;&lt;/h1&gt;" style="rounded=0;whiteSpace=wrap;html=1;fillColor=#d5e8d4;strokeColor=#82b366;" vertex="1" parent="1">
          <mxGeometry x="110" y="400" width="660" height="30" as="geometry" />
        </mxCell>
        <mxCell id="WqZ7D9HpAIjjWjwTD_I5-43" value="&lt;font style=&quot;font-size: 30px;&quot;&gt;🌻Make By Dakkk&lt;/font&gt;" style="html=1;shadow=0;dashed=0;shape=mxgraph.bootstrap.rrect;rSize=5;strokeColor=#1CA5B8;strokeWidth=1;fillColor=none;fontColor=#1CA5B8;whiteSpace=wrap;align=center;verticalAlign=middle;spacingLeft=0;fontStyle=1;fontSize=16;spacing=5;" vertex="1" parent="1">
          <mxGeometry x="840" y="70" width="160" height="70.39" as="geometry" />
        </mxCell>
        <mxCell id="WqZ7D9HpAIjjWjwTD_I5-44" value="" style="shape=table;startSize=0;container=1;collapsible=0;childLayout=tableLayout;fixedRows=1;rowLines=0;fontStyle=0;strokeColor=#666666;fontSize=16;spacing=4;spacingTop=0;spacingLeft=0;spacingBottom=0;strokeWidth=2;fillColor=none;fontColor=#333333;" vertex="1" parent="1">
          <mxGeometry x="810" y="216" width="290" height="94" as="geometry" />
        </mxCell>
        <mxCell id="WqZ7D9HpAIjjWjwTD_I5-45" value="" style="shape=tableRow;horizontal=0;startSize=0;swimlaneHead=0;swimlaneBody=0;top=0;left=0;bottom=0;right=0;collapsible=0;dropTarget=0;fillColor=none;points=[[0,0.5],[1,0.5]];portConstraint=eastwest;strokeColor=inherit;fontSize=16;spacing=4;spacingTop=0;spacingLeft=0;spacingBottom=0;" vertex="1" parent="WqZ7D9HpAIjjWjwTD_I5-44">
          <mxGeometry width="290" height="41" as="geometry" />
        </mxCell>
        <mxCell id="WqZ7D9HpAIjjWjwTD_I5-46" value="&lt;font style=&quot;font-size: 14px;&quot;&gt;查看DTB头部&lt;/font&gt;" style="shape=partialRectangle;html=1;whiteSpace=wrap;connectable=0;fillColor=none;top=0;left=0;bottom=0;right=0;overflow=hidden;strokeColor=inherit;fontSize=16;fontStyle=1;align=left;spacing=4;spacingTop=0;spacingLeft=0;spacingBottom=0;" vertex="1" parent="WqZ7D9HpAIjjWjwTD_I5-45">
          <mxGeometry width="105" height="41" as="geometry">
            <mxRectangle width="105" height="41" as="alternateBounds" />
          </mxGeometry>
        </mxCell>
        <mxCell id="WqZ7D9HpAIjjWjwTD_I5-47" value="fdtdump xxx.dtb" style="shape=partialRectangle;html=1;whiteSpace=wrap;connectable=0;fillColor=none;top=0;left=0;bottom=0;right=0;align=left;spacingLeft=0;overflow=hidden;strokeColor=inherit;fontSize=16;spacing=4;spacingTop=0;spacingBottom=0;strokeWidth=1;" vertex="1" parent="WqZ7D9HpAIjjWjwTD_I5-45">
          <mxGeometry x="105" width="185" height="41" as="geometry">
            <mxRectangle width="185" height="41" as="alternateBounds" />
          </mxGeometry>
        </mxCell>
        <mxCell id="WqZ7D9HpAIjjWjwTD_I5-48" value="" style="shape=tableRow;horizontal=0;startSize=0;swimlaneHead=0;swimlaneBody=0;top=0;left=0;bottom=0;right=0;collapsible=0;dropTarget=0;fillColor=none;points=[[0,0.5],[1,0.5]];portConstraint=eastwest;strokeColor=inherit;fontSize=16;spacing=4;spacingTop=0;spacingLeft=0;spacingBottom=0;" vertex="1" parent="WqZ7D9HpAIjjWjwTD_I5-44">
          <mxGeometry y="41" width="290" height="53" as="geometry" />
        </mxCell>
        <mxCell id="WqZ7D9HpAIjjWjwTD_I5-49" value="&lt;font style=&quot;font-size: 14px;&quot;&gt;查看文件头信息&lt;/font&gt;" style="shape=partialRectangle;html=1;whiteSpace=wrap;connectable=0;fillColor=none;top=0;left=0;bottom=0;right=0;overflow=hidden;strokeColor=inherit;fontSize=16;fontStyle=1;align=left;spacing=4;spacingTop=0;spacingLeft=0;spacingBottom=0;" vertex="1" parent="WqZ7D9HpAIjjWjwTD_I5-48">
          <mxGeometry width="105" height="53" as="geometry">
            <mxRectangle width="105" height="53" as="alternateBounds" />
          </mxGeometry>
        </mxCell>
        <mxCell id="WqZ7D9HpAIjjWjwTD_I5-50" value="hexdump -C test.dtb | head -20" style="shape=partialRectangle;html=1;whiteSpace=wrap;connectable=0;fillColor=none;top=0;left=0;bottom=0;right=0;align=left;spacingLeft=0;overflow=hidden;strokeColor=inherit;fontSize=16;spacing=4;spacingTop=0;spacingBottom=0;strokeWidth=1;" vertex="1" parent="WqZ7D9HpAIjjWjwTD_I5-48">
          <mxGeometry x="105" width="185" height="53" as="geometry">
            <mxRectangle width="185" height="53" as="alternateBounds" />
          </mxGeometry>
        </mxCell>
        <mxCell id="WqZ7D9HpAIjjWjwTD_I5-57" value="&lt;h1&gt;&lt;font style=&quot;font-size: 18px;&quot;&gt;DTB结构分析API&lt;/font&gt;&lt;/h1&gt;" style="rounded=0;whiteSpace=wrap;html=1;fontSize=16;fillColor=#f5f5f5;strokeColor=#666666;strokeWidth=2;fontColor=#333333;" vertex="1" parent="1">
          <mxGeometry x="810" y="177" width="290" height="39" as="geometry" />
        </mxCell>
        <mxCell id="WqZ7D9HpAIjjWjwTD_I5-103" value="&lt;span style=&quot;font-size: 18px;&quot;&gt;struct fdt_header&lt;/span&gt;" style="swimlane;fontStyle=1;align=center;verticalAlign=top;childLayout=stackLayout;horizontal=1;startSize=30;horizontalStack=0;resizeParent=1;resizeParentMax=0;resizeLast=0;collapsible=1;marginBottom=0;whiteSpace=wrap;html=1;fillColor=#d5e8d4;strokeColor=#82b366;" vertex="1" parent="1">
          <mxGeometry x="240" y="460" width="530" height="290" as="geometry" />
        </mxCell>
        <mxCell id="WqZ7D9HpAIjjWjwTD_I5-104" value="&lt;span style=&quot;font-size: 16px;&quot;&gt;uint32_t&lt;span style=&quot;white-space: pre;&quot;&gt;&#x9;&lt;/span&gt;&lt;b&gt;magic&lt;/b&gt;;&lt;span style=&quot;white-space: pre;&quot;&gt;&#x9;&lt;/span&gt;&lt;span style=&quot;white-space: pre;&quot;&gt;&#x9;&lt;/span&gt;标识是有效的设备树文件，通常为0xD00DFEED&lt;/span&gt;" style="text;strokeColor=none;fillColor=none;align=left;verticalAlign=top;spacingLeft=4;spacingRight=4;overflow=hidden;rotatable=0;points=[[0,0.5],[1,0.5]];portConstraint=eastwest;whiteSpace=wrap;html=1;" vertex="1" parent="WqZ7D9HpAIjjWjwTD_I5-103">
          <mxGeometry y="30" width="530" height="26" as="geometry" />
        </mxCell>
        <mxCell id="WqZ7D9HpAIjjWjwTD_I5-108" value="&lt;span style=&quot;font-size: 16px;&quot;&gt;uint32_t&lt;span style=&quot;white-space: pre;&quot;&gt;&#x9;&lt;/span&gt;&lt;b&gt;totalsize&lt;/b&gt;;&lt;span style=&quot;white-space: pre;&quot;&gt;&#x9;&lt;/span&gt;&lt;span style=&quot;white-space: pre;&quot;&gt;&#x9;&lt;/span&gt;整个设备树二进制文件的总大小（字节）&lt;/span&gt;" style="text;strokeColor=none;fillColor=none;align=left;verticalAlign=top;spacingLeft=4;spacingRight=4;overflow=hidden;rotatable=0;points=[[0,0.5],[1,0.5]];portConstraint=eastwest;whiteSpace=wrap;html=1;" vertex="1" parent="WqZ7D9HpAIjjWjwTD_I5-103">
          <mxGeometry y="56" width="530" height="26" as="geometry" />
        </mxCell>
        <mxCell id="WqZ7D9HpAIjjWjwTD_I5-109" value="&lt;span style=&quot;font-size: 16px;&quot;&gt;uint32_t&lt;span style=&quot;white-space: pre;&quot;&gt;&#x9;&lt;/span&gt;&lt;b&gt;off_dt_struct&lt;/b&gt;&lt;/span&gt;&lt;span style=&quot;font-size: 16px;&quot;&gt;;&lt;span style=&quot;white-space: pre;&quot;&gt;&#x9;&lt;/span&gt;&lt;/span&gt;&lt;span style=&quot;font-size: 16px;&quot;&gt;&lt;span style=&quot;font-weight: bold; white-space: pre;&quot;&gt;&#x9;&lt;/span&gt;&lt;b&gt;结构数据&lt;/b&gt;在文件中的偏移量&lt;/span&gt;" style="text;strokeColor=none;fillColor=none;align=left;verticalAlign=top;spacingLeft=4;spacingRight=4;overflow=hidden;rotatable=0;points=[[0,0.5],[1,0.5]];portConstraint=eastwest;whiteSpace=wrap;html=1;" vertex="1" parent="WqZ7D9HpAIjjWjwTD_I5-103">
          <mxGeometry y="82" width="530" height="26" as="geometry" />
        </mxCell>
        <mxCell id="WqZ7D9HpAIjjWjwTD_I5-110" value="&lt;span style=&quot;font-size: 16px;&quot;&gt;uint32_t&lt;span style=&quot;white-space: pre;&quot;&gt;&#x9;&lt;/span&gt;&lt;b&gt;off_dt_strings&lt;/b&gt;&lt;/span&gt;&lt;span style=&quot;font-size: 16px;&quot;&gt;;&lt;span style=&quot;white-space: pre;&quot;&gt;&#x9;&lt;/span&gt;&lt;span style=&quot;white-space: pre;&quot;&gt;&#x9;&lt;/span&gt;&lt;b&gt;字符串表&lt;/b&gt;在文件中的偏移量&lt;/span&gt;" style="text;strokeColor=none;fillColor=none;align=left;verticalAlign=top;spacingLeft=4;spacingRight=4;overflow=hidden;rotatable=0;points=[[0,0.5],[1,0.5]];portConstraint=eastwest;whiteSpace=wrap;html=1;" vertex="1" parent="WqZ7D9HpAIjjWjwTD_I5-103">
          <mxGeometry y="108" width="530" height="26" as="geometry" />
        </mxCell>
        <mxCell id="WqZ7D9HpAIjjWjwTD_I5-111" value="&lt;span style=&quot;font-size: 16px;&quot;&gt;uint32_t&lt;span style=&quot;white-space: pre;&quot;&gt;&#x9;&lt;/span&gt;&lt;b&gt;off_mem_rsvmap&lt;/b&gt;&lt;/span&gt;&lt;span style=&quot;font-size: 16px;&quot;&gt;;&lt;span style=&quot;white-space: pre;&quot;&gt;&#x9;&lt;span style=&quot;white-space: pre;&quot;&gt;&#x9;&lt;/span&gt;&lt;/span&gt;&lt;b&gt;内存保留映射表&lt;/b&gt;在文件中的偏移量&lt;/span&gt;" style="text;strokeColor=none;fillColor=none;align=left;verticalAlign=top;spacingLeft=4;spacingRight=4;overflow=hidden;rotatable=0;points=[[0,0.5],[1,0.5]];portConstraint=eastwest;whiteSpace=wrap;html=1;" vertex="1" parent="WqZ7D9HpAIjjWjwTD_I5-103">
          <mxGeometry y="134" width="530" height="26" as="geometry" />
        </mxCell>
        <mxCell id="WqZ7D9HpAIjjWjwTD_I5-112" value="&lt;span style=&quot;font-size: 16px;&quot;&gt;uint32_t&lt;span style=&quot;white-space: pre;&quot;&gt;&#x9;&lt;/span&gt;&lt;b&gt;version&lt;/b&gt;;&lt;span style=&quot;white-space: pre;&quot;&gt;&#x9;&lt;/span&gt;&lt;span style=&quot;white-space: pre;&quot;&gt;&#x9;&lt;/span&gt;&lt;span style=&quot;white-space: pre;&quot;&gt;&#x9;&lt;/span&gt;&lt;span style=&quot;white-space: pre;&quot;&gt;&#x9;&lt;/span&gt;设备树格式的版本号&lt;/span&gt;" style="text;strokeColor=none;fillColor=none;align=left;verticalAlign=top;spacingLeft=4;spacingRight=4;overflow=hidden;rotatable=0;points=[[0,0.5],[1,0.5]];portConstraint=eastwest;whiteSpace=wrap;html=1;" vertex="1" parent="WqZ7D9HpAIjjWjwTD_I5-103">
          <mxGeometry y="160" width="530" height="26" as="geometry" />
        </mxCell>
        <mxCell id="WqZ7D9HpAIjjWjwTD_I5-113" value="&lt;span style=&quot;font-size: 16px;&quot;&gt;uint32_t&lt;span style=&quot;white-space: pre;&quot;&gt;&#x9;&lt;/span&gt;&lt;b&gt;last_comp_version&lt;/b&gt;;&lt;span style=&quot;white-space: pre;&quot;&gt;&#x9;&lt;/span&gt;最后兼容的版本号，向后兼容性检查&lt;/span&gt;" style="text;strokeColor=none;fillColor=none;align=left;verticalAlign=top;spacingLeft=4;spacingRight=4;overflow=hidden;rotatable=0;points=[[0,0.5],[1,0.5]];portConstraint=eastwest;whiteSpace=wrap;html=1;" vertex="1" parent="WqZ7D9HpAIjjWjwTD_I5-103">
          <mxGeometry y="186" width="530" height="26" as="geometry" />
        </mxCell>
        <mxCell id="WqZ7D9HpAIjjWjwTD_I5-114" value="&lt;span style=&quot;font-size: 16px;&quot;&gt;uint32_t&lt;span style=&quot;white-space: pre;&quot;&gt;&#x9;&lt;/span&gt;&lt;b&gt;boot_cpuid_phys&lt;/b&gt;&lt;/span&gt;&lt;span style=&quot;font-size: 16px;&quot;&gt;;&lt;span style=&quot;white-space: pre;&quot;&gt;&#x9;&lt;/span&gt;&lt;span style=&quot;white-space: pre;&quot;&gt;&#x9;&lt;/span&gt;启动CPU的物理ID号&lt;/span&gt;" style="text;strokeColor=none;fillColor=none;align=left;verticalAlign=top;spacingLeft=4;spacingRight=4;overflow=hidden;rotatable=0;points=[[0,0.5],[1,0.5]];portConstraint=eastwest;whiteSpace=wrap;html=1;" vertex="1" parent="WqZ7D9HpAIjjWjwTD_I5-103">
          <mxGeometry y="212" width="530" height="26" as="geometry" />
        </mxCell>
        <mxCell id="WqZ7D9HpAIjjWjwTD_I5-115" value="&lt;span style=&quot;font-size: 16px;&quot;&gt;uint32_t&lt;span style=&quot;white-space: pre;&quot;&gt;&#x9;&lt;/span&gt;&lt;b&gt;size_dt_strings&lt;/b&gt;&lt;/span&gt;&lt;span style=&quot;font-size: 16px;&quot;&gt;;&lt;span style=&quot;white-space: pre;&quot;&gt;&#x9;&lt;/span&gt;&lt;span style=&quot;white-space: pre;&quot;&gt;&#x9;&lt;/span&gt;&lt;b&gt;字符串表&lt;/b&gt;的大小（字节）&lt;/span&gt;" style="text;strokeColor=none;fillColor=none;align=left;verticalAlign=top;spacingLeft=4;spacingRight=4;overflow=hidden;rotatable=0;points=[[0,0.5],[1,0.5]];portConstraint=eastwest;whiteSpace=wrap;html=1;" vertex="1" parent="WqZ7D9HpAIjjWjwTD_I5-103">
          <mxGeometry y="238" width="530" height="26" as="geometry" />
        </mxCell>
        <mxCell id="WqZ7D9HpAIjjWjwTD_I5-116" value="&lt;span style=&quot;font-size: 16px;&quot;&gt;uint32_t&lt;span style=&quot;white-space: pre;&quot;&gt;&#x9;&lt;/span&gt;&lt;b&gt;size_dt_struct&lt;/b&gt;&lt;/span&gt;&lt;span style=&quot;font-size: 16px;&quot;&gt;;&lt;span style=&quot;white-space: pre;&quot;&gt;&#x9;&lt;/span&gt;&lt;span style=&quot;white-space: pre;&quot;&gt;&#x9;&lt;/span&gt;设备树&lt;b&gt;结构数据&lt;/b&gt;的大小（字节）&lt;/span&gt;" style="text;strokeColor=none;fillColor=none;align=left;verticalAlign=top;spacingLeft=4;spacingRight=4;overflow=hidden;rotatable=0;points=[[0,0.5],[1,0.5]];portConstraint=eastwest;whiteSpace=wrap;html=1;" vertex="1" parent="WqZ7D9HpAIjjWjwTD_I5-103">
          <mxGeometry y="264" width="530" height="26" as="geometry" />
        </mxCell>
        <mxCell id="WqZ7D9HpAIjjWjwTD_I5-117" style="edgeStyle=orthogonalEdgeStyle;rounded=0;orthogonalLoop=1;jettySize=auto;html=1;entryX=0;entryY=0.5;entryDx=0;entryDy=0;fillColor=#d5e8d4;strokeColor=#82b366;strokeWidth=2;" edge="1" parent="1" source="WqZ7D9HpAIjjWjwTD_I5-2" target="WqZ7D9HpAIjjWjwTD_I5-31">
          <mxGeometry relative="1" as="geometry" />
        </mxCell>
        <mxCell id="WqZ7D9HpAIjjWjwTD_I5-118" value="" style="shape=table;startSize=0;container=1;collapsible=0;childLayout=tableLayout;fixedRows=1;rowLines=0;fontStyle=0;strokeColor=#9673a6;fontSize=14;fillColor=none;" vertex="1" parent="1">
          <mxGeometry x="110" y="810" width="660" height="350" as="geometry" />
        </mxCell>
        <mxCell id="WqZ7D9HpAIjjWjwTD_I5-119" value="" style="shape=tableRow;horizontal=0;startSize=0;swimlaneHead=0;swimlaneBody=0;top=0;left=0;bottom=0;right=0;collapsible=0;dropTarget=0;fillColor=none;points=[[0,0.5],[1,0.5]];portConstraint=eastwest;strokeColor=inherit;fontSize=14;" vertex="1" parent="WqZ7D9HpAIjjWjwTD_I5-118">
          <mxGeometry width="660" height="30" as="geometry" />
        </mxCell>
        <mxCell id="WqZ7D9HpAIjjWjwTD_I5-120" value="&lt;b&gt;定义&lt;/b&gt;" style="shape=partialRectangle;html=1;whiteSpace=wrap;connectable=0;fillColor=none;top=0;left=0;bottom=0;right=0;overflow=hidden;pointerEvents=1;strokeColor=inherit;fontSize=14;" vertex="1" parent="WqZ7D9HpAIjjWjwTD_I5-119">
          <mxGeometry width="128" height="30" as="geometry">
            <mxRectangle width="128" height="30" as="alternateBounds" />
          </mxGeometry>
        </mxCell>
        <mxCell id="WqZ7D9HpAIjjWjwTD_I5-121" value="DTB的&lt;b&gt;核心部分&lt;/b&gt;，包含了所有&lt;b&gt;设备节点和属性信息&lt;/b&gt;，通过特定的&lt;b&gt;标志位（Tag）组织&lt;/b&gt;" style="shape=partialRectangle;html=1;whiteSpace=wrap;connectable=0;fillColor=none;top=0;left=0;bottom=0;right=0;align=left;spacingLeft=6;overflow=hidden;strokeColor=inherit;fontSize=14;" vertex="1" parent="WqZ7D9HpAIjjWjwTD_I5-119">
          <mxGeometry x="128" width="532" height="30" as="geometry">
            <mxRectangle width="532" height="30" as="alternateBounds" />
          </mxGeometry>
        </mxCell>
        <mxCell id="WqZ7D9HpAIjjWjwTD_I5-122" value="" style="shape=tableRow;horizontal=0;startSize=0;swimlaneHead=0;swimlaneBody=0;top=0;left=0;bottom=0;right=0;collapsible=0;dropTarget=0;fillColor=none;points=[[0,0.5],[1,0.5]];portConstraint=eastwest;strokeColor=inherit;fontSize=14;" vertex="1" parent="WqZ7D9HpAIjjWjwTD_I5-118">
          <mxGeometry y="30" width="660" height="80" as="geometry" />
        </mxCell>
        <mxCell id="WqZ7D9HpAIjjWjwTD_I5-123" value="&lt;b&gt;标志位定义&lt;/b&gt;" style="shape=partialRectangle;html=1;whiteSpace=wrap;connectable=0;fillColor=none;top=0;left=0;bottom=0;right=0;overflow=hidden;strokeColor=inherit;fontSize=14;" vertex="1" parent="WqZ7D9HpAIjjWjwTD_I5-122">
          <mxGeometry width="128" height="80" as="geometry">
            <mxRectangle width="128" height="80" as="alternateBounds" />
          </mxGeometry>
        </mxCell>
        <mxCell id="WqZ7D9HpAIjjWjwTD_I5-124" value="&lt;div&gt;1、0x00000001（&lt;b&gt;FDT_BEGIN_NODE&lt;/b&gt;）：节点开始，后接节点名称&lt;/div&gt;&lt;div&gt;2、0x00000002（&lt;b&gt;FDT_END_NODE&lt;/b&gt;）：节点结束&lt;/div&gt;&lt;div&gt;3、0x00000003（&lt;b&gt;FDT_PROP&lt;/b&gt;）：属性开始&lt;/div&gt;&lt;div&gt;4、0x00000009（&lt;b&gt;FDT_END&lt;/b&gt;）：整个设备树结束&lt;/div&gt;" style="shape=partialRectangle;html=1;whiteSpace=wrap;connectable=0;fillColor=none;top=0;left=0;bottom=0;right=0;align=left;spacingLeft=6;overflow=hidden;strokeColor=#d79b00;fontSize=14;" vertex="1" parent="WqZ7D9HpAIjjWjwTD_I5-122">
          <mxGeometry x="128" width="532" height="80" as="geometry">
            <mxRectangle width="532" height="80" as="alternateBounds" />
          </mxGeometry>
        </mxCell>
        <mxCell id="WqZ7D9HpAIjjWjwTD_I5-137" value="" style="shape=tableRow;horizontal=0;startSize=0;swimlaneHead=0;swimlaneBody=0;top=0;left=0;bottom=0;right=0;collapsible=0;dropTarget=0;fillColor=none;points=[[0,0.5],[1,0.5]];portConstraint=eastwest;strokeColor=inherit;fontSize=14;" vertex="1" parent="WqZ7D9HpAIjjWjwTD_I5-118">
          <mxGeometry y="110" width="660" height="90" as="geometry" />
        </mxCell>
        <mxCell id="WqZ7D9HpAIjjWjwTD_I5-138" value="&lt;b&gt;节点信息结构体&lt;/b&gt;" style="shape=partialRectangle;html=1;whiteSpace=wrap;connectable=0;fillColor=none;top=0;left=0;bottom=0;right=0;overflow=hidden;strokeColor=inherit;fontSize=14;" vertex="1" parent="WqZ7D9HpAIjjWjwTD_I5-137">
          <mxGeometry width="128" height="90" as="geometry">
            <mxRectangle width="128" height="90" as="alternateBounds" />
          </mxGeometry>
        </mxCell>
        <mxCell id="WqZ7D9HpAIjjWjwTD_I5-139" value="" style="shape=partialRectangle;html=1;whiteSpace=wrap;connectable=0;fillColor=none;top=0;left=0;bottom=0;right=0;align=left;spacingLeft=6;overflow=hidden;strokeColor=#d79b00;fontSize=14;" vertex="1" parent="WqZ7D9HpAIjjWjwTD_I5-137">
          <mxGeometry x="128" width="532" height="90" as="geometry">
            <mxRectangle width="532" height="90" as="alternateBounds" />
          </mxGeometry>
        </mxCell>
        <mxCell id="WqZ7D9HpAIjjWjwTD_I5-140" value="" style="shape=tableRow;horizontal=0;startSize=0;swimlaneHead=0;swimlaneBody=0;top=0;left=0;bottom=0;right=0;collapsible=0;dropTarget=0;fillColor=none;points=[[0,0.5],[1,0.5]];portConstraint=eastwest;strokeColor=inherit;fontSize=14;" vertex="1" parent="WqZ7D9HpAIjjWjwTD_I5-118">
          <mxGeometry y="200" width="660" height="150" as="geometry" />
        </mxCell>
        <mxCell id="WqZ7D9HpAIjjWjwTD_I5-141" value="&lt;b&gt;属性信息结构体&lt;/b&gt;" style="shape=partialRectangle;html=1;whiteSpace=wrap;connectable=0;fillColor=none;top=0;left=0;bottom=0;right=0;overflow=hidden;strokeColor=inherit;fontSize=14;" vertex="1" parent="WqZ7D9HpAIjjWjwTD_I5-140">
          <mxGeometry width="128" height="150" as="geometry">
            <mxRectangle width="128" height="150" as="alternateBounds" />
          </mxGeometry>
        </mxCell>
        <mxCell id="WqZ7D9HpAIjjWjwTD_I5-142" value="" style="shape=partialRectangle;html=1;whiteSpace=wrap;connectable=0;fillColor=none;top=0;left=0;bottom=0;right=0;align=left;spacingLeft=6;overflow=hidden;strokeColor=#d79b00;fontSize=14;" vertex="1" parent="WqZ7D9HpAIjjWjwTD_I5-140">
          <mxGeometry x="128" width="532" height="150" as="geometry">
            <mxRectangle width="532" height="150" as="alternateBounds" />
          </mxGeometry>
        </mxCell>
        <mxCell id="WqZ7D9HpAIjjWjwTD_I5-125" value="&lt;h1&gt;&lt;font style=&quot;font-size: 18px;&quot;&gt;结构数据详解&lt;/font&gt;&lt;/h1&gt;" style="rounded=0;whiteSpace=wrap;html=1;fillColor=#e1d5e7;strokeColor=#9673a6;" vertex="1" parent="1">
          <mxGeometry x="110" y="780" width="660" height="30" as="geometry" />
        </mxCell>
        <mxCell id="WqZ7D9HpAIjjWjwTD_I5-126" value="&lt;span style=&quot;font-size: 18px;&quot;&gt;struct fdt_node_header&lt;/span&gt;" style="swimlane;fontStyle=1;align=center;verticalAlign=top;childLayout=stackLayout;horizontal=1;startSize=30;horizontalStack=0;resizeParent=1;resizeParentMax=0;resizeLast=0;collapsible=1;marginBottom=0;whiteSpace=wrap;html=1;fillColor=#e1d5e7;strokeColor=#9673a6;" vertex="1" parent="1">
          <mxGeometry x="240" y="928" width="530" height="82" as="geometry" />
        </mxCell>
        <mxCell id="WqZ7D9HpAIjjWjwTD_I5-127" value="&lt;span style=&quot;font-size: 16px;&quot;&gt;uint32_t &lt;span style=&quot;white-space: pre;&quot;&gt;&#x9;&lt;/span&gt;&lt;b&gt;tag&lt;/b&gt;;&lt;/span&gt;&lt;span style=&quot;font-size: 16px; white-space: pre;&quot;&gt;&#x9;&lt;/span&gt;&lt;span style=&quot;font-size: 16px; white-space: pre;&quot;&gt;&#x9;&lt;/span&gt;&lt;span style=&quot;font-size: 16px;&quot;&gt;节点标签，固定值为FDT_BEGIN_NODE&lt;/span&gt;" style="text;strokeColor=none;fillColor=none;align=left;verticalAlign=top;spacingLeft=4;spacingRight=4;overflow=hidden;rotatable=0;points=[[0,0.5],[1,0.5]];portConstraint=eastwest;whiteSpace=wrap;html=1;" vertex="1" parent="WqZ7D9HpAIjjWjwTD_I5-126">
          <mxGeometry y="30" width="530" height="26" as="geometry" />
        </mxCell>
        <mxCell id="WqZ7D9HpAIjjWjwTD_I5-128" value="&lt;span style=&quot;font-size: 16px;&quot;&gt;char &lt;span style=&quot;white-space: pre;&quot;&gt;&#x9;&lt;/span&gt;&lt;b&gt;name&lt;/b&gt;[];&lt;/span&gt;&lt;span style=&quot;font-size: 16px; white-space: pre;&quot;&gt;&#x9;&lt;/span&gt;&lt;span style=&quot;font-size: 16px;&quot;&gt;节点名称字符串，以null结尾，长度可变&lt;/span&gt;" style="text;strokeColor=none;fillColor=none;align=left;verticalAlign=top;spacingLeft=4;spacingRight=4;overflow=hidden;rotatable=0;points=[[0,0.5],[1,0.5]];portConstraint=eastwest;whiteSpace=wrap;html=1;" vertex="1" parent="WqZ7D9HpAIjjWjwTD_I5-126">
          <mxGeometry y="56" width="530" height="26" as="geometry" />
        </mxCell>
        <mxCell id="WqZ7D9HpAIjjWjwTD_I5-143" value="&lt;span style=&quot;font-size: 18px;&quot;&gt;struct fdt_node_header&lt;/span&gt;" style="swimlane;fontStyle=1;align=center;verticalAlign=top;childLayout=stackLayout;horizontal=1;startSize=30;horizontalStack=0;resizeParent=1;resizeParentMax=0;resizeLast=0;collapsible=1;marginBottom=0;whiteSpace=wrap;html=1;fillColor=#e1d5e7;strokeColor=#9673a6;" vertex="1" parent="1">
          <mxGeometry x="240" y="1026" width="530" height="134" as="geometry" />
        </mxCell>
        <mxCell id="WqZ7D9HpAIjjWjwTD_I5-144" value="&lt;span style=&quot;font-size: 16px;&quot;&gt;uint32_t &lt;span style=&quot;white-space: pre;&quot;&gt;&#x9;&lt;/span&gt;&lt;b&gt;tag&lt;/b&gt;;&lt;/span&gt;&lt;span style=&quot;font-size: 16px; white-space: pre;&quot;&gt;&#x9;&lt;/span&gt;&lt;span style=&quot;font-size: 16px; white-space: pre;&quot;&gt;&#x9;&lt;span style=&quot;white-space: pre;&quot;&gt;&#x9;&lt;/span&gt;&lt;/span&gt;&lt;span style=&quot;font-size: 16px;&quot;&gt;属性标签，固定值为 FDT_PROP&lt;/span&gt;" style="text;strokeColor=none;fillColor=none;align=left;verticalAlign=top;spacingLeft=4;spacingRight=4;overflow=hidden;rotatable=0;points=[[0,0.5],[1,0.5]];portConstraint=eastwest;whiteSpace=wrap;html=1;" vertex="1" parent="WqZ7D9HpAIjjWjwTD_I5-143">
          <mxGeometry y="30" width="530" height="26" as="geometry" />
        </mxCell>
        <mxCell id="WqZ7D9HpAIjjWjwTD_I5-145" value="&lt;span style=&quot;font-size: 16px;&quot;&gt;uint32_t &lt;span style=&quot;white-space: pre;&quot;&gt;&#x9;&lt;/span&gt;&lt;b&gt;len&lt;/b&gt;;&lt;/span&gt;&lt;span style=&quot;font-size: 16px; white-space: pre;&quot;&gt;&#x9;&lt;span style=&quot;white-space: pre;&quot;&gt;&#x9;&lt;/span&gt;&lt;span style=&quot;white-space: pre;&quot;&gt;&#x9;&lt;/span&gt;&lt;/span&gt;&lt;span style=&quot;font-size: 16px;&quot;&gt;属性数据的长度（字节数）&lt;/span&gt;" style="text;strokeColor=none;fillColor=none;align=left;verticalAlign=top;spacingLeft=4;spacingRight=4;overflow=hidden;rotatable=0;points=[[0,0.5],[1,0.5]];portConstraint=eastwest;whiteSpace=wrap;html=1;" vertex="1" parent="WqZ7D9HpAIjjWjwTD_I5-143">
          <mxGeometry y="56" width="530" height="26" as="geometry" />
        </mxCell>
        <mxCell id="WqZ7D9HpAIjjWjwTD_I5-146" value="&lt;span style=&quot;font-size: 16px;&quot;&gt;uint32_t &lt;span style=&quot;white-space: pre;&quot;&gt;&#x9;&lt;/span&gt;&lt;b&gt;nameoff&lt;/b&gt;;&lt;/span&gt;&lt;span style=&quot;font-size: 16px; white-space: pre;&quot;&gt;&#x9;&lt;/span&gt;&lt;span style=&quot;font-size: 16px;&quot;&gt;&lt;span style=&quot;font-weight: bold; white-space: pre;&quot;&gt;&#x9;&lt;/span&gt;属性名称在字符串表的偏移&lt;/span&gt;" style="text;strokeColor=none;fillColor=none;align=left;verticalAlign=top;spacingLeft=4;spacingRight=4;overflow=hidden;rotatable=0;points=[[0,0.5],[1,0.5]];portConstraint=eastwest;whiteSpace=wrap;html=1;" vertex="1" parent="WqZ7D9HpAIjjWjwTD_I5-143">
          <mxGeometry y="82" width="530" height="26" as="geometry" />
        </mxCell>
        <mxCell id="WqZ7D9HpAIjjWjwTD_I5-147" value="&lt;span style=&quot;font-size: 16px;&quot;&gt;char &lt;span style=&quot;white-space: pre;&quot;&gt;&#x9;&lt;/span&gt;&lt;b&gt;data&lt;/b&gt;[];&lt;/span&gt;&lt;span style=&quot;font-size: 16px; white-space: pre;&quot;&gt;&#x9;&lt;/span&gt;&lt;span style=&quot;font-size: 16px; white-space: pre;&quot;&gt;&#x9;&lt;/span&gt;&lt;span style=&quot;font-size: 16px;&quot;&gt;属性的实际数据，长度可变&lt;/span&gt;" style="text;strokeColor=none;fillColor=none;align=left;verticalAlign=top;spacingLeft=4;spacingRight=4;overflow=hidden;rotatable=0;points=[[0,0.5],[1,0.5]];portConstraint=eastwest;whiteSpace=wrap;html=1;" vertex="1" parent="WqZ7D9HpAIjjWjwTD_I5-143">
          <mxGeometry y="108" width="530" height="26" as="geometry" />
        </mxCell>
        <mxCell id="WqZ7D9HpAIjjWjwTD_I5-148" style="edgeStyle=orthogonalEdgeStyle;rounded=0;orthogonalLoop=1;jettySize=auto;html=1;entryX=0;entryY=0.5;entryDx=0;entryDy=0;fillColor=#e1d5e7;strokeColor=#9673a6;strokeWidth=2;" edge="1" parent="1" source="WqZ7D9HpAIjjWjwTD_I5-67" target="WqZ7D9HpAIjjWjwTD_I5-125">
          <mxGeometry relative="1" as="geometry">
            <Array as="points">
              <mxPoint x="70" y="299" />
              <mxPoint x="70" y="795" />
            </Array>
          </mxGeometry>
        </mxCell>
      </root>
    </mxGraphModel>
  </diagram>
</mxfile>
